<svg id="Group_822" data-name="Group 822" xmlns="http://www.w3.org/2000/svg" xmlns:xlink="http://www.w3.org/1999/xlink" width="71.31" height="86.169" viewBox="0 0 71.31 86.169">
  <defs>
    <clipPath id="clip-path">
      <rect id="Rectangle_205" data-name="Rectangle 205" width="71.31" height="86.169" fill="none"/>
    </clipPath>
  </defs>
  <g id="Group_821" data-name="Group 821" clip-path="url(#clip-path)">
    <path id="Path_1884" data-name="Path 1884" d="M330.514,439.52l-5.155-1.149s-1.266,2.3-5.369,2.172-5.126-2.007-5.126-2.007l-6.606,3.532a16.049,16.049,0,0,1,6.249,6.629,47.38,47.38,0,0,1,3.159,10.978s10.984-13.071,11.7-13.933a3.233,3.233,0,0,1,1.375-1.058s.226-5.064-.227-5.165" transform="translate(-293.637 -389.808)" fill="#1a1a1a"/>
    <path id="Path_1885" data-name="Path 1885" d="M3.979,187.143c.122.087,6.369,1.264,7.42-1.406S7.8,183.2,7.8,183.2s.488-3.814-2.489-3.252-1.335,7.2-1.335,7.2" transform="translate(59.365 -159.959)" fill="#1a1a1a"/>
    <path id="Path_1886" data-name="Path 1886" d="M3.927,184.74a9.447,9.447,0,0,0,2.593-.313,2.974,2.974,0,0,0,2.1-1.675,1.848,1.848,0,0,0-.115-1.826c-.725-1.033-2.567-1.216-3.427-1.244a3.775,3.775,0,0,0-.856-2.762,2.306,2.306,0,0,0-2.122-.486,2.157,2.157,0,0,0-1.456,1c-1.31,2.039-.231,6.486-.184,6.674a.387.387,0,0,0,.151.223,10.961,10.961,0,0,0,3.313.409M.84,184.014h0Zm3.965-3.559c.783,0,2.533.158,3.065.917a1.109,1.109,0,0,1,.027,1.094c-.82,2.082-5.647,1.455-6.73,1.231-.2-.905-.845-4.318.135-5.843a1.387,1.387,0,0,1,.945-.657,1.566,1.566,0,0,1,1.442.287,3.432,3.432,0,0,1,.588,2.534.39.39,0,0,0,.4.438l.131,0" transform="translate(62.504 -156.83)" fill="#1a1a1a"/>
    <path id="Path_1887" data-name="Path 1887" d="M87.134,252.16a8.017,8.017,0,0,0,4.767-1.595.389.389,0,0,0-.494-.6,7.36,7.36,0,0,1-4.273,1.418H87.1a.389.389,0,0,0,0,.778Z" transform="translate(-30.339 -222.194)" fill="#1a1a1a"/>
    <path id="Path_1888" data-name="Path 1888" d="M233.338,56.474s-5.555-3.584-9.523-3.033l-2.082-5.826-.755,5.726a61.436,61.436,0,0,0-13.893,1.072c-6.077,1.412-7.98,4.325-8.135,4.8a13.715,13.715,0,0,0,.18,2.777l-1.862-2.213s-2.191-2.709-3.91-1.107.612,6.256,3.933,6.373c0,0,.946,2.666,2.785,3.562,0,0-7.5.441-11.012-8s-1.5-26.458,13.37-29.608c15.351-3.253,26.962,3.578,30.054,12.207s.851,13.262.851,13.262" transform="translate(-183.593 -26.836)" fill="#1a1a1a"/>
    <path id="Path_1889" data-name="Path 1889" d="M196.736,65.843c.1,0,.158,0,.164,0a.389.389,0,0,0,.147-.739c-1.671-.814-2.579-3.316-2.588-3.342a.389.389,0,0,0-.353-.258,4.755,4.755,0,0,1-3.883-3.179,2.317,2.317,0,0,1,.2-2.52,1.347,1.347,0,0,1,1.054-.4,4.194,4.194,0,0,1,2.288,1.467l1.867,2.218a.389.389,0,0,0,.683-.307,12.751,12.751,0,0,1-.195-2.6c.01-.029,1.466-3.06,7.853-4.545a61.528,61.528,0,0,1,13.788-1.062.382.382,0,0,0,.4-.338l.544-4.13,1.54,4.309a.386.386,0,0,0,.42.254c3.773-.525,9.2,2.94,9.258,2.975a.39.39,0,0,0,.561-.158c.094-.2,2.277-4.879-.835-13.562-1.613-4.5-5.489-8.431-10.635-10.782-5.755-2.63-12.624-3.209-19.866-1.674A17.747,17.747,0,0,0,186.811,36.9c-3.636,6.923-3.409,15.656-1.306,20.7,3.289,7.9,10.089,8.237,11.231,8.237m-2.917-3.581a8.586,8.586,0,0,0,1.759,2.724,11.161,11.161,0,0,1-2.776-.743,12.132,12.132,0,0,1-6.578-6.937c-2.033-4.881-2.248-13.333,1.276-20.043a16.991,16.991,0,0,1,11.815-9.035c11.409-2.418,25.663.951,29.607,11.957,2.483,6.931,1.454,11.259,1.022,12.553-1.334-.8-5.627-3.175-9.065-2.876L218.9,44.327a.389.389,0,0,0-.752.08l-.709,5.376A61.14,61.14,0,0,0,203.8,50.876c-6.087,1.415-8.188,4.354-8.417,5.064a5.642,5.642,0,0,0,0,1.644l-1.019-1.211a4.887,4.887,0,0,0-2.832-1.747,2.123,2.123,0,0,0-1.641.606,3.038,3.038,0,0,0-.4,3.362,5.578,5.578,0,0,0,4.325,3.667" transform="translate(-180.394 -23.679)" fill="#1a1a1a"/>
    <path id="Path_1890" data-name="Path 1890" d="M498.31,7.473s-.66-4.665-7.616-3.87-15.245,9.951-5.865,19.065a19.757,19.757,0,0,1,13.48-15.2" transform="translate(-480.245 -3.123)" fill="#1a1a1a"/>
    <path id="Path_1891" data-name="Path 1891" d="M481.7,19.935a.39.39,0,0,0,.386-.338A19.522,19.522,0,0,1,495.3,4.72a.389.389,0,0,0,.264-.424c-.007-.051-.794-5.034-8.045-4.2A12.408,12.408,0,0,0,477.622,8c-1.342,3.936.01,8.135,3.808,11.825a.39.39,0,0,0,.271.11M494.723,4.094A20.308,20.308,0,0,0,481.46,18.751c-4.055-4.239-3.944-8.028-3.1-10.5A11.74,11.74,0,0,1,487.61.867c5.506-.627,6.825,2.247,7.113,3.228" transform="translate(-477.116 0)" fill="#1a1a1a"/>
    <path id="Path_1892" data-name="Path 1892" d="M207.323,282.134a.389.389,0,0,0,.041-.776,24.391,24.391,0,0,1-4.856-1.052,2.922,2.922,0,0,1-1.875-1.551,1.137,1.137,0,0,1,.1-1,9.953,9.953,0,0,1,2.469-.746c2.954-.7,7.418-1.763,10.736-4.585,5-4.255,5.219-10.808,5.226-11.085a.389.389,0,0,0-.379-.4h-.01a.39.39,0,0,0-.389.379c0,.065-.221,6.486-4.952,10.511-3.176,2.7-7.53,3.736-10.411,4.421-1.848.439-2.677.652-2.951,1.094a1.915,1.915,0,0,0-.176,1.658,3.654,3.654,0,0,0,2.34,2.028,24.713,24.713,0,0,0,5.045,1.1l.042,0" transform="translate(-169.988 -232.036)" fill="#1a1a1a"/>
    <path id="Path_1893" data-name="Path 1893" d="M277.55,418.346a3.806,3.806,0,0,0,1.146-.184c4.468-1.407,13.152-16.955,14.168-18.8a9.686,9.686,0,0,0,2.522-1.015,5.008,5.008,0,0,0,2.776-4.381,4.3,4.3,0,0,0-1.17-3.188,4.489,4.489,0,0,0-2.593-1.189c.068-.741.082-2-.523-2.449a.949.949,0,0,0-1.027-.041c-1.641.765-14.123,16.043-16.368,20.975a.389.389,0,1,0,.709.322c2.283-5.016,14.682-19.983,15.988-20.592.054-.025.182-.077.234-.04.252.187.291,1.272.168,2.128a.389.389,0,0,0,.388.445,3.883,3.883,0,0,1,2.481,1,3.561,3.561,0,0,1,.935,2.629c0,3.675-4.8,4.664-4.851,4.673a.391.391,0,0,0-.267.2c-.024.043-2.4,4.375-5.294,8.824-4.792,7.359-7.273,9.369-8.51,9.758a2.738,2.738,0,0,1-2.322-.252c-3.283-1.927-5.46-10.642-6.99-18.019-2.385-11.5,1.533-14.041,1.573-14.065.22-.114,5.862-3.062,7.2-3.842a3.709,3.709,0,0,0,1.967-3.9c-.274-1.142-.97-1.282-2.023-1.495-.405-.082-.909-.183-1.518-.358a6.563,6.563,0,0,1-3.066-1.79.389.389,0,1,0-.6.5,7.272,7.272,0,0,0,3.451,2.042c.639.184,1.161.289,1.579.373,1.062.214,1.267.274,1.42.913a2.934,2.934,0,0,1-1.6,3.044c-1.321.77-7.126,3.8-7.185,3.834-.2.116-4.472,2.765-1.956,14.9,2.353,11.344,4.553,16.886,7.358,18.533a3.52,3.52,0,0,0,1.8.507" transform="translate(-256.498 -332.177)" fill="#1a1a1a"/>
    <path id="Path_1894" data-name="Path 1894" d="M433.24,489.517h.014a.389.389,0,0,0,.375-.4,27.145,27.145,0,0,0-3.431-11.82c-3.1-5.033-4.32-5.916-6.662-6.163a.389.389,0,0,0-.082.774c1.912.2,3,.784,6.081,5.8,3.053,4.963,3.314,11.375,3.316,11.439a.389.389,0,0,0,.389.376" transform="translate(-409.192 -418.936)" fill="#1a1a1a"/>
    <path id="Path_1895" data-name="Path 1895" d="M358.445,436.316a7.458,7.458,0,0,0,5.394-2.2.389.389,0,1,0-.592-.506c-.146.169-3.675,4.128-10.144.237a.389.389,0,0,0-.4.667,11.133,11.133,0,0,0,5.744,1.8" transform="translate(-331.675 -385.458)" fill="#1a1a1a"/>
    <path id="Path_1896" data-name="Path 1896" d="M177.771,395.132a.389.389,0,0,0,.389-.376l.235-6.7a.38.38,0,0,0-.011-.108,2.279,2.279,0,0,1,1.566-2.693c7.654-2.754,10.923-3.071,11.185-2.626.527.894.341,7.361.1,11.228a.389.389,0,0,0,.777.049c.107-1.71.6-10.308-.206-11.671-.669-1.134-4.746-.364-12.12,2.289a3.032,3.032,0,0,0-2.071,3.559l-.233,6.644a.389.389,0,0,0,.375.4h.014" transform="translate(-140.599 -339.442)" fill="#1a1a1a"/>
    <path id="Path_1897" data-name="Path 1897" d="M139.867,486.931a2.08,2.08,0,0,0,1.633-.823c2.513-3,1.714-14.121.56-19.5-1.354-6.313-4.114-6.662-4.23-6.674a.389.389,0,0,0-.084.774c.05.008,2.343.417,3.554,6.063,1.248,5.82,1.727,16.3-.4,18.837a1.305,1.305,0,0,1-1.084.543c-4.289-.147-5.739-8.67-5.753-8.756a.389.389,0,0,0-.768.126c.062.377,1.57,9.239,6.5,9.408l.074,0" transform="translate(-86.614 -408.98)" fill="#1a1a1a"/>
    <path id="Path_1898" data-name="Path 1898" d="M182.207,496a.389.389,0,0,0,.191-.729c-3.466-1.947-4.7-4.122-3.557-6.289a1.254,1.254,0,0,1,.789-.68,2.961,2.961,0,0,1,1.934.417.389.389,0,0,0,.408-.663,3.715,3.715,0,0,0-2.545-.5,2.015,2.015,0,0,0-1.275,1.07c-.782,1.487-1.319,4.418,3.864,7.33a.389.389,0,0,0,.19.05" transform="translate(-130.968 -433.474)" fill="#1a1a1a"/>
    <path id="Path_1899" data-name="Path 1899" d="M184.017,566.3a25.116,25.116,0,0,0,6.142-1.525c.226-.075,5.53-1.843,5.831-2.365a26.4,26.4,0,0,0,.463-4.729.389.389,0,1,0-.778-.036,41.508,41.508,0,0,1-.351,4.334c-1.131.707-10.567,3.984-11.549,3.524-1.151-.532-1.576-1.625-1.262-3.251a.389.389,0,1,0-.764-.148c-.487,2.519.655,3.623,1.7,4.105a1.412,1.412,0,0,0,.568.089" transform="translate(-145.266 -495.539)" fill="#1a1a1a"/>
    <path id="Path_1900" data-name="Path 1900" d="M217.623,633.221c12.259,0,14.913-3.64,15.039-3.822a.463.463,0,0,0,.068-.48c-.008-.014-.016-.028-.025-.042-.238-.646-1.747-6.84-2.722-10.923a.389.389,0,0,0-.757.181c1.785,7.475,2.407,10.019,2.738,10.889-.554.622-4.923,4.693-22.039,3.009a.389.389,0,1,0-.076.775c2.944.29,5.522.413,7.775.413m14.447-3.953-.028.016a.382.382,0,0,1-.049-.184c.028.067.053.122.077.168m.372-.559a.383.383,0,0,1,.079.022.393.393,0,0,0-.079-.022" transform="translate(-184.671 -549.231)" fill="#1a1a1a"/>
    <path id="Path_1901" data-name="Path 1901" d="M190.892,656.747a.389.389,0,0,0,.238-.7l-4.444-3.436a.389.389,0,1,0-.476.616l4.444,3.436a.388.388,0,0,0,.238.081" transform="translate(-140.584 -580.244)" fill="#1a1a1a"/>
    <path id="Path_1902" data-name="Path 1902" d="M310.393,337.985a2.9,2.9,0,0,0,.339-.02,2.939,2.939,0,0,0,2.715-2.784.389.389,0,0,0-.778-.029,2.18,2.18,0,0,1-2.027,2.039c-1.9.215-2.372-2.174-2.391-2.276a.389.389,0,1,0-.765.14c.192,1.051,1.042,2.93,2.907,2.93" transform="translate(-276.201 -297.529)" fill="#1a1a1a"/>
    <path id="Path_1903" data-name="Path 1903" d="M238.5,271.126a1.68,1.68,0,1,0,1.727-1.879,1.815,1.815,0,0,0-1.727,1.879" transform="translate(-196.934 -239.419)" fill="#1a1a1a"/>
    <path id="Path_1904" data-name="Path 1904" d="M237.019,270.39a2.215,2.215,0,0,0,2.066-2.255,2.489,2.489,0,0,0-.522-1.644,1.887,1.887,0,0,0-2.938-.1,2.489,2.489,0,0,0-.636,1.6,2.2,2.2,0,0,0,1.966,2.4h.063m.035-3.876h.037a1.156,1.156,0,0,1,.863.462,1.713,1.713,0,0,1,.353,1.131,1.448,1.448,0,0,1-1.324,1.5,1.433,1.433,0,0,1-1.216-1.593,1.711,1.711,0,0,1,.432-1.1,1.163,1.163,0,0,1,.856-.4" transform="translate(-193.809 -236.298)" fill="#1a1a1a"/>
    <path id="Path_1905" data-name="Path 1905" d="M396.389,272.468a1.68,1.68,0,1,0,1.727-1.879,1.815,1.815,0,0,0-1.727,1.879" transform="translate(-372.311 -240.612)" fill="#1a1a1a"/>
    <path id="Path_1906" data-name="Path 1906" d="M394.909,271.733a1.927,1.927,0,0,0,1.427-.653,2.489,2.489,0,0,0,.636-1.6,2.2,2.2,0,0,0-1.966-2.4,1.937,1.937,0,0,0-1.494.652,2.565,2.565,0,0,0-.114,3.246,1.922,1.922,0,0,0,1.444.755h.066m.033-3.876h.037a1.433,1.433,0,0,1,1.216,1.593,1.714,1.714,0,0,1-.432,1.1,1.109,1.109,0,0,1-1.756-.062,1.788,1.788,0,0,1,.078-2.234,1.164,1.164,0,0,1,.856-.4" transform="translate(-369.188 -237.492)" fill="#1a1a1a"/>
    <path id="Path_1907" data-name="Path 1907" d="M410.564,320.224c-.054,1.548,1.606,2.862,3.707,2.936s3.85-1.121,3.9-2.669-1.606-2.862-3.707-2.936-3.849,1.121-3.9,2.669" transform="translate(-392.349 -282.373)" fill="#1a1a1a"/>
    <path id="Path_1908" data-name="Path 1908" d="M411.328,320.428c2.226,0,4.052-1.338,4.112-3.047a2.858,2.858,0,0,0-1.192-2.34,4.945,4.945,0,0,0-2.89-1c-2.3-.082-4.244,1.284-4.306,3.044s1.77,3.257,4.082,3.338c.066,0,.13,0,.195,0m-.169-5.611.171,0a4.168,4.168,0,0,1,2.434.832,2.1,2.1,0,0,1,.9,1.7c-.047,1.331-1.623,2.363-3.5,2.294s-3.378-1.2-3.332-2.533c.046-1.29,1.523-2.3,3.33-2.3" transform="translate(-389.225 -279.249)" fill="#1a1a1a"/>
    <path id="Path_1909" data-name="Path 1909" d="M228.607,331.017s-2.322-.962-3.806-.133a1.994,1.994,0,0,0,.421,3.757s3.527-3,3.619-4.007" transform="translate(-182.309 -293.928)" fill="#1a1a1a"/>
    <path id="Path_1910" data-name="Path 1910" d="M222.1,331.909a.389.389,0,0,0,.252-.093c.856-.727,3.656-3.184,3.754-4.269a.389.389,0,0,0-.767-.12,5.172,5.172,0,0,0-3.85,0,2.628,2.628,0,0,0-1.326,2.567A2.271,2.271,0,0,0,222,331.9a.388.388,0,0,0,.1.012m2.869-3.783a23.973,23.973,0,0,1-2.962,2.961,1.455,1.455,0,0,1-1.072-1.2,1.834,1.834,0,0,1,.933-1.786,4.315,4.315,0,0,1,3.1.023" transform="translate(-179.184 -290.808)" fill="#1a1a1a"/>
    <path id="Path_1911" data-name="Path 1911" d="M448.242,323.951a.8.8,0,1,0,.83-.746.789.789,0,0,0-.83.746" transform="translate(-428.196 -287.4)" fill="#fff"/>
    <path id="Path_1912" data-name="Path 1912" d="M243,331.147a.8.8,0,1,0,.83-.746.789.789,0,0,0-.83.746" transform="translate(-200.215 -293.798)" fill="#fff"/>
    <path id="Path_1913" data-name="Path 1913" d="M611.994,75a.384.384,0,0,0,.1-.012.389.389,0,0,0,.28-.474,2.517,2.517,0,0,1,.908-2.778.389.389,0,1,0-.548-.553,3.3,3.3,0,0,0-1.114,3.524.389.389,0,0,0,.377.292" transform="translate(-609.826 -63.193)" fill="#fff"/>
    <path id="Path_1914" data-name="Path 1914" d="M613.913,119.092a.389.389,0,0,0,.388-.361.87.87,0,0,0-.471-.869.39.39,0,0,0-.354.694c.024.012.055.028.048.119a.389.389,0,0,0,.36.416h.029" transform="translate(-610.932 -104.767)" fill="#fff"/>
    <path id="Path_1915" data-name="Path 1915" d="M200.348,182.772a.389.389,0,0,0,.385-.451c-.036-.225-.062-.444-.087-.66a4.215,4.215,0,0,0-.869-2.472.389.389,0,1,0-.591.507,3.5,3.5,0,0,1,.686,2.056c.027.226.054.457.092.693a.389.389,0,0,0,.384.327" transform="translate(-151.483 -159.218)" fill="#fff"/>
    <path id="Path_1916" data-name="Path 1916" d="M198.22,224.464a.389.389,0,0,0,.389-.376l.019-.553a.389.389,0,0,0-.375-.4.381.381,0,0,0-.4.375l-.019.553a.389.389,0,0,0,.375.4h.014" transform="translate(-149.235 -198.412)" fill="#fff"/>
    <path id="Path_1917" data-name="Path 1917" d="M560.062,131.808a.389.389,0,0,0,.379-.3,6.371,6.371,0,0,1,1.82-3.545.389.389,0,0,0-.535-.566,7.068,7.068,0,0,0-2.045,3.94.39.39,0,0,0,.38.474" transform="translate(-553.075 -113.186)" fill="#fff"/>
    <path id="Path_1918" data-name="Path 1918" d="M583.9,185.172h.018a.39.39,0,0,0,.372-.406,1.941,1.941,0,0,1,.047-.424,2.632,2.632,0,0,0,.058-.614.4.4,0,0,0-.408-.369.389.389,0,0,0-.369.409,1.946,1.946,0,0,1-.047.435,2.633,2.633,0,0,0-.059.6.389.389,0,0,0,.388.372" transform="translate(-577.731 -163.046)" fill="#fff"/>
    <path id="Path_1919" data-name="Path 1919" d="M514.74,511.509a.373.373,0,0,0,.068-.006.389.389,0,0,0,.315-.451,2.814,2.814,0,0,1,.435-2.576.389.389,0,1,0-.6-.495,3.589,3.589,0,0,0-.6,3.207.389.389,0,0,0,.383.322" transform="translate(-501.304 -451.58)" fill="#1a1a1a"/>
    <path id="Path_1920" data-name="Path 1920" d="M518.24,549.958a.389.389,0,0,0,.369-.512,1.425,1.425,0,0,1-.029-.512c0-.062.007-.124.008-.187a.389.389,0,1,0-.778-.022c0,.056,0,.112-.007.168a2.078,2.078,0,0,0,.068.8.389.389,0,0,0,.369.266" transform="translate(-504.682 -487.6)" fill="#1a1a1a"/>
    <path id="Path_1921" data-name="Path 1921" d="M273.867,421.941a.389.389,0,0,0,.389-.38,1.959,1.959,0,0,1,1.313-2.1.389.389,0,1,0-.322-.709,2.719,2.719,0,0,0-1.769,2.785.39.39,0,0,0,.38.4Z" transform="translate(-234.784 -372.336)" fill="#1a1a1a"/>
    <path id="Path_1922" data-name="Path 1922" d="M287.052,457.188a.389.389,0,0,0,.388-.376l.022-.623a.389.389,0,1,0-.778-.027l-.022.623a.389.389,0,0,0,.375.4h.014" transform="translate(-247.91 -405.294)" fill="#1a1a1a"/>
    <path id="Path_1923" data-name="Path 1923" d="M233.946,605.378s-5.586,2.269-6.586,1.506-1.659-1.192-1.619-1.794.054-1.566.054-1.566l-.672-.113s-5.3,8.9-6.338,10.4-4.444,6.125-4.444,6.125a131.1,131.1,0,0,0,13.289-.087,20.461,20.461,0,0,0,8.948-3.2Z" transform="translate(-189.013 -536.564)" fill="#1a1a1a"/>
  </g>
</svg>
